<?xml version="1.0" encoding="utf-8"?><!--Generator: Adobe Illustrator 23.0.1, SVG Export Plug-In . SVG Version: 6.00 Build 0)--><svg version="1.1" id="Layer_1" xmlns="http://www.w3.org/2000/svg" xmlns:xlink="http://www.w3.org/1999/xlink" x="0px" y="0px" viewBox="0 0 750 500" style="enable-background:new 0 0 750 500" xml:space="preserve"><style type="text/css">.st0{fill:none;}
	.st1{fill:#010A0F;stroke:#010A0F;stroke-width:0.6379;stroke-miterlimit:10;}
	.st2{fill:#EAF4FF;}
	.st3{fill:#FFE2DF;}
	.st4{fill:#FF8F7E;}
	.st5{fill:#FFADA1;}
	.st6{fill:#FFFFFF;}
	.st7{fill:#FFB3A8;}
	.st8{fill:#00042B;}
	.st9{fill:#06002B;}
	.st10{fill:#CF5F36;}
	.st11{fill:#010A0F;}
	.st12{fill:none;stroke:#010A0F;stroke-width:0.5833;stroke-miterlimit:10;}
	.st13{fill:#6ED3A3;}
	.st14{fill:#AAE8C9;}
	.st15{fill:none;stroke:#010A0F;stroke-width:1.7498;stroke-miterlimit:10;}
	.st16{fill:none;stroke:#FFE2DF;stroke-width:1.1665;stroke-miterlimit:10;}
	.st17{fill:#D7F9E6;}
	.st18{fill:#08175C;}
	.st19{fill:#58B788;}
	.st20{fill:#409166;}
	.st21{fill:#8FE5BA;}
	.st22{fill:none;stroke:#D7F9E6;stroke-width:1.1513;stroke-miterlimit:10;}
	.st23{fill:none;stroke:#D7F9E6;stroke-width:1.1919;stroke-miterlimit:10;}
	.st24{fill:#010A0F;stroke:#010A0F;stroke-width:1.2215;stroke-miterlimit:10;}
	.st25{fill:#FFB9AE;}
	.st26{fill:url(#SVGID_2_);}
	.st27{fill:#DE5D49;}
	.st28{fill:#F58C7C;}
	.st29{fill:#DC6856;}
	.st30{fill:none;stroke:#010A0F;stroke-width:2.3837;stroke-miterlimit:10;}
	.st31{fill:#FFFFFF;stroke:#FFFFFF;stroke-width:0.2543;stroke-miterlimit:10;}
	.st32{fill:#D8CFCE;}
	.st33{opacity:0.37;fill:#1F235B;enable-background:new    ;}
	.st34{fill:none;stroke:#FF5C4C;stroke-width:1.6266;stroke-miterlimit:10;}
	.st35{fill:#FF5C4C;}
	.st36{fill:#1A1A4D;stroke:#1A1A4D;stroke-width:1.2199;stroke-linecap:round;stroke-linejoin:round;stroke-miterlimit:10;}</style><pattern y="500" width="103" height="31.8" patternUnits="userSpaceOnUse" id="SVGID_1_" viewBox="0 -31.8 103 31.8" style="overflow:visible"><g><rect x="0" y="-31.8" class="st0" width="103" height="31.8"/><g><rect x="0" y="-31.8" class="st0" width="103" height="31.8"/><path class="st1" d="M11.5-5.9c0-3.1-2.5-5.6-5.6-5.6S0.3-9,0.3-5.9s2.5,5.6,5.6,5.6C9-0.4,11.5-2.9,11.5-5.9z"/><path class="st1" d="M37.4-5.9c0-3.1-2.5-5.6-5.6-5.6S26.2-9,26.2-5.9s2.5,5.6,5.6,5.6S37.4-2.9,37.4-5.9z"/><path class="st1" d="M63.4-5.9c0-3.1-2.5-5.6-5.6-5.6S52.2-9,52.2-5.9s2.5,5.6,5.6,5.6S63.4-2.9,63.4-5.9z"/><path class="st1" d="M89.3-5.9c0-3.1-2.5-5.6-5.6-5.6S78.1-9,78.1-5.9s2.5,5.6,5.6,5.6C86.8-0.4,89.3-2.9,89.3-5.9z"/><path class="st1" d="M24.9-22.7c0-3.1-2.5-5.6-5.6-5.6s-5.6,2.5-5.6,5.6s2.5,5.6,5.6,5.6S24.9-19.6,24.9-22.7z"/><path class="st1" d="M50.8-22.7c0-3.1-2.5-5.6-5.6-5.6s-5.6,2.5-5.6,5.6s2.5,5.6,5.6,5.6S50.8-19.6,50.8-22.7z"/><path class="st1" d="M76.7-22.7c0-3.1-2.5-5.6-5.6-5.6s-5.6,2.5-5.6,5.6s2.5,5.6,5.6,5.6S76.7-19.6,76.7-22.7z"/><path class="st1" d="M102.7-22.7c0-3.1-2.5-5.6-5.6-5.6s-5.6,2.5-5.6,5.6s2.5,5.6,5.6,5.6S102.7-19.6,102.7-22.7z"/></g></g></pattern><g id="BACKGROUND"><g><g><path class="st2" d="M534.5,428c1.9,0,1.9-3,0-3C532.5,425,532.5,428,534.5,428L534.5,428z"/></g></g></g><g id="OBJECTS"><g><g><g><path class="st3" d="M505.1,26.7C437,26.7,381.8,81.9,381.8,150c0,1,0,2,0,3v165.8l70.1-57.6c16.1,7.7,34.1,12,53.2,12
					c68.1,0,123.3-55.2,123.3-123.3S573.2,26.7,505.1,26.7z"/><g><path class="st4" d="M619.7,273.1l-135.6-1.2l18.4-80.7c1.3-5.5,17.7-9.4,23.3-9.4h99.3c7.8,0,13.5,7.2,11.8,15.9L619.7,273.1z
						"/><g><g><g><path class="st5" d="M526.7,211.6c0,0-34.8,30.9-40.1,30.2c-5.2-0.7-80.2-69.9-80.2-69.9l-16.9-14.8c0,0,26.2-6.9,45.5,13.3
									c0,0,24.8,23.8,36.4,20.9c11.6-2.8,41.3-29.3,41.3-29.3L526.7,211.6z"/><path class="st6" d="M528.3,146c0,0,26.4-14.2,41.6,0.1c16.5,15.4-33.5,71.1-48.7,74.7l-18.3-52.6L528.3,146z"/><path class="st6" d="M577.4,140.7c0,0,31.7,3.8,34.2,35.8s-6.2,97.2-6.2,97.2L499,272.8l14.8-85.4
									c0.4-8.2,10.4-39.5,13.2-39.8l44.4-11.1L577.4,140.7z"/><path class="st7" d="M610.5,220c0,0-6.1,50.7-10.5,53.7c-4.4,2.9-102.5-0.2-102.5-0.2l-20.9-0.8c0,0,15.1-23.2,42.9-20.8
									c0,0,35.3,0.9,42.2-8.9c6.8-9.8,11.5-30.2,11.5-30.2L610.5,220z"/></g><g><g><path class="st7" d="M560.8,112.6l5.5,21.2l-19.9,21.9l-3.1-8.1l-2.6-19.1l15.9-18.9c0,0,3.1,1.5,3.6,2.2
										C560.6,112.4,560.8,112.6,560.8,112.6z"/><path class="st8" d="M556.6,109.6l-15.9,18.9l1.6,13.1c0,0,14.6-9.3,13.2-22.8"/></g><g><path class="st9" d="M561.7,100.5c0,0-2.9,0.9-4.2,4.3l-12.1-19.7c0,0-7.7-3-10.5,0.5s-5.3,5.8-7.8,5.5s-5.3-3.5-5.3-3.5
										s-16.6-12.1-12.6-16.1c4-4,33-3.9,41.6-1c8.2,2.8,13.3,6.9,12,30.2"/><path class="st7" d="M557.1,102.3c0.4,0.5,1.1,0.5,1.4,0c1.1-1.8,3.5-4.4,6,0.9c3.3,7.2-5.1,8-5.5,9.1
										c-0.8,2.4-3.2,10.4-8.8,14.7c-3.4,2.6-9,4.3-14.1,1.4c-5.1-2.9-6.3,0.3-15.1-41.9c0,0,2.8,3.1,5.8,3.4
										c3,0.2,6.4-4.6,9.3-6.2c2.4-1.3,6.8-4.4,12,3.5C550.5,90.7,555,99.3,557.1,102.3z"/><g><path class="st6" d="M528.7,116.5c0,0,2.8,0.6,8.8-1.5c0,0-2.2,5.2-4.8,5C530,119.7,528.7,116.5,528.7,116.5z"/><path class="st10" d="M563.1,102.9l-3.5,4.2C559.6,107.1,559.3,99.1,563.1,102.9z"/><path class="st8" d="M531.5,106.4c0.2,0.9,0.8,1.6,1.2,1.4c0.5-0.1,0.6-0.9,0.4-1.9c-0.2-0.9-0.8-1.6-1.2-1.4
											C531.4,104.6,531.2,105.5,531.5,106.4z"/><path class="st8" d="M525.9,106.9c0.2,0.9,0.8,1.6,1.2,1.4c0.5-0.1,0.6-0.9,0.4-1.9c-0.2-0.9-0.8-1.6-1.2-1.4
											C525.8,105.2,525.7,106,525.9,106.9z"/><path class="st8" d="M536.6,97.5c1.4,0.5-1.4-2.8-3.2-2.8s-3.2,1.2-3.2,2.8C530.2,97.5,533.2,96.2,536.6,97.5z"/><path class="st8" d="M523.9,100.3c1.7-0.7,3-0.7,3-0.7c-0.6-1.3-2.1-1.9-3.6-1.6"/><path class="st10" d="M528.4,106.2l-0.8,7.6c0,0.1,0.1,0.2,0.2,0.2l3-0.5c0.1,0,0.2-0.1,0.1-0.2l-2.3-7.1
											C528.7,106,528.4,106,528.4,106.2z"/></g></g></g></g><g><path class="st11" d="M544.5,171.2c0,1.2-1,2.1-2.1,2.1c-1.2,0-2.1-1-2.1-2.1c0-1.2,1-2.1,2.1-2.1
								C543.5,169.1,544.5,170.1,544.5,171.2z"/><path class="st11" d="M544.3,180.1c0,1.2-1,2.1-2.1,2.1c-1.2,0-2.1-1-2.1-2.1c0-1.2,1-2.1,2.1-2.1
								C543.3,177.9,544.3,178.9,544.3,180.1z"/></g></g><g><g><g><polygon class="st6" points="566.7,126 575.7,139.2 547.4,168.2 544.3,152.2 								"/><path class="st6" d="M541.4,136.4c-0.5,0.2-5.8,7.2-5.8,7.2l0.4,21.7l8.2-14.4L541.4,136.4z"/></g></g><polyline class="st12" points="577,140.4 547.8,168.8 544.3,152.2 536,165.3 534,144.7 						"/><polygon class="st11" points="535.9,165.4 545.6,157.1 544.3,152.2 						"/></g></g><g><path class="st13" d="M440.7,115.6H341c-9.1,0-16.5-7.4-16.5-16.5l0,0c0-9.1,7.4-16.5,16.5-16.5h99.7c9.1,0,16.5,7.4,16.5,16.5
						l0,0C457.2,108.2,449.8,115.6,440.7,115.6z"/><polygon class="st11" points="386.2,110.3 386.2,91.4 399.7,100.8 					"/><path class="st11" d="M436.1,101.5c0-3.5-2.8-6.3-6.3-6.3s-6.3,2.8-6.3,6.3s2.8,6.3,6.3,6.3C433.3,107.9,436.1,105,436.1,101.5
						z"/><path class="st14" d="M361.8,101.5c0-3.5-2.8-6.3-6.3-6.3s-6.3,2.8-6.3,6.3s2.8,6.3,6.3,6.3C358.9,107.9,361.8,105,361.8,101.5
						z"/></g></g><g><rect x="468.5" y="266.1" class="st11" width="68.4" height="8"/><polygon class="st13" points="536.9,266.1 492.2,266.1 495.7,274.1 536.9,274.1 				"/><polygon class="st13" points="382.9,274.1 490.8,274.1 464.7,199.8 356.9,199.8 				"/><path class="st11" d="M417.5,239c0-3.7,3-6.8,6.8-6.8c3.7,0,6.8,3,6.8,6.8c0,3.7-3,6.8-6.8,6.8S417.5,242.8,417.5,239z"/></g><line class="st15" x1="383.5" y1="274.2" x2="624.8" y2="274.2"/></g><g><path class="st3" d="M700.8,61.3c0,2.8-2.3,5-5,5c-2.8,0-5-2.3-5-5c0-2.8,2.3-5,5-5C698.5,56.2,700.8,58.5,700.8,61.3z"/><path class="st3" d="M660.4,192.4c0,2.4-1.9,4.3-4.3,4.3c-2.4,0-4.3-1.9-4.3-4.3c0-2.4,1.9-4.3,4.3-4.3
				C658.5,188.1,660.4,190,660.4,192.4z"/><path class="st16" d="M404.6,54.7c0,4.3-3.5,7.8-7.8,7.8S389,59,389,54.7s3.5-7.8,7.8-7.8S404.6,50.4,404.6,54.7z"/><circle class="st3" cx="596.8" cy="45.7" r="4.3"/><g><circle class="st17" cx="682" cy="148.8" r="33"/><g><g><path class="st13" d="M722.6,147.4l-34.1-0.4c-1.2,0-2.3,0.7-2.9,1.8l-3.3,6.6c-0.2,0.4-0.7,0.2-0.7-0.2l-0.2-8.3l0.3-33.2
							c0-3.3,2.7-5.9,5.9-5.8l35.3,0.4c3.3,0,5.9,2.7,5.8,5.9l-0.3,27.3C728.5,144.9,725.8,147.5,722.6,147.4z"/><path class="st6" d="M696.9,119.3c0,2-1.6,3.6-3.6,3.5c-2,0-3.6-1.6-3.5-3.6c0-2,1.6-3.6,3.6-3.5
							C695.4,115.7,696.9,117.3,696.9,119.3z"/><path class="st18" d="M721,120l-19.1-0.2c-0.5,0-1-0.5-1-1l0,0c0-0.5,0.5-1,1-1L721,118c0.5,0,1,0.5,1,1l0,0
							C722,119.5,721.5,120,721,120z"/><path class="st18" d="M721,122.9l-13.1-0.1c-0.5,0-1-0.5-1-1l0,0c0-0.5,0.5-1,1-1L721,121c0.5,0,1,0.5,1,1l0,0
							C722,122.5,721.5,122.9,721,122.9z"/><path class="st6" d="M702.5,135.2l-10-0.1c-0.6,0-1-0.5-1-1.1l0,0c0-0.6,0.5-1,1.1-1l10,0.1c0.6,0,1,0.5,1,1.1l0,0
							C703.5,134.7,703.1,135.2,702.5,135.2z"/><path class="st6" d="M709.3,138.6l-17-0.2c-0.5,0-1-0.5-1-1l0,0c0-0.5,0.5-1,1-1l17,0.2c0.5,0,1,0.5,1,1l0,0
							C710.3,138.2,709.8,138.6,709.3,138.6z"/></g><g><path class="st3" d="M642.9,160.2l27.8,0.3c1,0,1.9,0.6,2.3,1.5l2.5,5.5c0.1,0.3,0.6,0.2,0.6-0.1l0.3-6.8l0.3-27.1
							c0-2.6-2.1-4.8-4.7-4.8l-28.7-0.3c-2.6,0-4.8,2.1-4.8,4.7l-0.2,22.3C638.1,158,640.3,160.2,642.9,160.2z"/><path class="st19" d="M656.8,154l-5.2-0.1c-0.2,0-0.3-0.2-0.3-0.4l0.1-9c0-0.2,0.2-0.3,0.4-0.3l5.2,0.1c0.2,0,0.3,0.2,0.3,0.4
							l-0.1,9C657.2,153.8,657,154,656.8,154z"/><path class="st20" d="M650.3,153.9l-5.3-0.1c-0.2,0-0.3-0.1-0.3-0.3l0.1-5.3c0-0.2,0.1-0.3,0.3-0.3l5.3,0.1
							c0.2,0,0.3,0.1,0.3,0.3l-0.1,5.3C650.6,153.8,650.5,153.9,650.3,153.9z"/><path class="st13" d="M663.3,154.1l-5.2-0.1c-0.2,0-0.3-0.2-0.3-0.4l0.1-14.3c0-0.2,0.2-0.3,0.4-0.3l5.2,0.1
							c0.2,0,0.3,0.2,0.3,0.4l-0.1,14.3C663.7,153.9,663.5,154.1,663.3,154.1z"/><path class="st21" d="M669,154.1h-4.2c-0.3,0-0.6-0.3-0.6-0.6l0.2-18.2c0-0.3,0.3-0.6,0.6-0.6h4.2c0.3,0,0.6,0.3,0.6,0.6
							l-0.2,18.2C669.6,153.9,669.4,154.1,669,154.1z"/></g></g></g><g><g><ellipse class="st17" cx="645.3" cy="75.4" rx="23" ry="23"/></g><path class="st13" d="M625.9,73.7l-1.3,1.6c-0.4,0.4-0.3,1.1,0.1,1.5c1.3,1.2,2.7,2.3,4.3,3c0.5,0.2,1.1,0.1,1.4-0.4l1.1-1.8
					c0.3-0.4,0.7-0.6,1.2-0.5c0.8,0.2,1.6,0.4,2.4,0.4c0.4,0,0.8,0.3,0.9,0.8l0.7,2.2c0.2,0.5,0.6,0.8,1.2,0.8
					c1.8-0.2,3.6-0.7,5.2-1.5c0.5-0.2,0.7-0.8,0.6-1.3l-0.7-2.1c-0.1-0.4,0-0.9,0.4-1.2c0.3-0.2,0.7-0.5,1-0.8s0.6-0.5,0.8-0.8
					c0.3-0.3,0.8-0.4,1.2-0.3l2.1,0.9c0.5,0.2,1.1,0,1.3-0.4c1-1.5,1.7-3.2,2.1-5c0.1-0.5-0.2-1.1-0.7-1.3l-2.1-0.8
					c-0.4-0.2-0.7-0.6-0.7-1c0-0.9,0-1.7-0.2-2.6c-0.1-0.5,0.2-1,0.6-1.2l1.8-0.8c0.5-0.2,0.8-0.8,0.6-1.4c-0.6-1.7-1.5-3.3-2.6-4.7
					c-0.3-0.4-0.9-0.5-1.3-0.3l-2.2,1.1c-0.4,0.2-0.8,0.1-1.1-0.1c-0.6-0.5-1.3-1-1.9-1.3c-0.4-0.2-0.6-0.7-0.5-1.2l0.5-2
					c0.1-0.5-0.2-1.1-0.7-1.3c-1.7-0.6-3.5-0.9-5.3-0.9c-0.5,0-1,0.4-1.1,0.9l-0.4,2.3c-0.1,0.4-0.4,0.8-0.8,0.9
					c-0.8,0.1-1.6,0.4-2.3,0.7c-0.4,0.2-0.9,0-1.2-0.3l-1.4-1.6c-0.4-0.4-1-0.5-1.4-0.2c-0.7,0.5-1.4,1-2.1,1.6
					c-0.7,0.6-1.3,1.2-1.9,1.9c-0.3,0.4-0.3,1.1,0.1,1.5l1.5,1.5c0.3,0.3,0.4,0.9,0.2,1.3c-0.4,0.8-0.8,1.6-1,2.4
					c-0.1,0.5-0.6,0.8-1,0.8h-2.1c-0.6,0-1,0.4-1.1,1c-0.2,1.8-0.1,3.6,0.3,5.3c0.1,0.5,0.6,0.9,1.2,0.9l2.1-0.2
					c0.5,0,0.9,0.2,1.1,0.7c0.3,0.8,0.8,1.6,1.3,2.3C626.2,72.8,626.2,73.4,625.9,73.7z M627.8,64.6c2.1-10.4,15.7-9.6,16.6,1
					c0,0.1,0,0.2,0,0.3c-2.1,10.4-15.7,9.6-16.6-1C627.8,64.9,627.8,64.7,627.8,64.6z"/><path class="st18" d="M647.1,93.8l-1,1.3c-0.3,0.4-0.3,0.9,0.1,1.2c1,1,2.2,1.8,3.4,2.5c0.4,0.2,0.9,0.1,1.1-0.3l0.9-1.4
					c0.2-0.3,0.6-0.5,1-0.4c0.6,0.2,1.3,0.3,1.9,0.4c0.3,0,0.6,0.3,0.7,0.6l0.6,1.8c0.1,0.4,0.5,0.7,0.9,0.6
					c1.4-0.2,2.9-0.6,4.2-1.2c0.4-0.2,0.6-0.6,0.5-1.1l-0.5-1.7c-0.1-0.4,0-0.7,0.3-1c0.3-0.2,0.5-0.4,0.8-0.6
					c0.2-0.2,0.5-0.4,0.7-0.7c0.2-0.3,0.6-0.3,1-0.2l1.7,0.7c0.4,0.2,0.9,0,1.1-0.4c0.8-1.2,1.3-2.6,1.7-4c0.1-0.4-0.1-0.9-0.5-1
					l-1.7-0.7c-0.3-0.1-0.6-0.5-0.5-0.8c0-0.7,0-1.4-0.1-2.1c-0.1-0.4,0.1-0.8,0.5-0.9l1.5-0.7c0.4-0.2,0.6-0.7,0.5-1.1
					c-0.5-1.4-1.2-2.6-2.1-3.8c-0.3-0.3-0.7-0.4-1.1-0.3l-1.8,0.8c-0.3,0.1-0.7,0.1-0.9-0.1c-0.5-0.4-1-0.8-1.6-1.1
					c-0.3-0.2-0.5-0.6-0.4-1l0.4-1.6c0.1-0.4-0.1-0.9-0.6-1c-1.4-0.5-2.8-0.7-4.2-0.7c-0.4,0-0.8,0.3-0.9,0.7l-0.3,1.8
					c-0.1,0.3-0.3,0.6-0.7,0.7c-0.6,0.1-1.3,0.3-1.9,0.5c-0.3,0.1-0.8,0-1-0.3l-1.1-1.3c-0.3-0.3-0.8-0.4-1.2-0.2
					c-0.6,0.4-1.2,0.8-1.7,1.3s-1,1-1.5,1.6c-0.3,0.3-0.3,0.9,0.1,1.2l1.2,1.2c0.3,0.3,0.3,0.7,0.1,1c-0.3,0.6-0.6,1.3-0.8,2
					c-0.1,0.4-0.4,0.6-0.8,0.6h-1.7c-0.4,0-0.8,0.3-0.9,0.8c-0.2,1.4-0.1,2.9,0.2,4.3c0.1,0.4,0.5,0.7,0.9,0.7l1.7-0.2
					c0.4,0,0.7,0.2,0.9,0.5c0.3,0.6,0.6,1.3,1,1.9C647.4,93.1,647.3,93.5,647.1,93.8z M648.6,86.5c1.7-8.4,12.6-7.7,13.4,0.8
					c0,0.1,0,0.2,0,0.3c-1.7,8.4-12.6,7.7-13.4-0.8C648.6,86.7,648.6,86.6,648.6,86.5z"/></g><path class="st22" d="M455.3,294.9c0,3.7-3,6.6-6.6,6.6c-3.7,0-6.6-3-6.6-6.6s3-6.6,6.6-6.6S455.3,291.3,455.3,294.9z"/></g></g><g><g><path class="st17" d="M351.9,268.2c0,2.3-1.9,4.1-4.1,4.1s-4.1-1.9-4.1-4.1c0-2.3,1.9-4.1,4.1-4.1S351.9,265.9,351.9,268.2z"/><path class="st23" d="M68.2,366.7c0,1.5-1.2,2.8-2.8,2.8c-1.5,0-2.8-1.2-2.8-2.8c0-1.5,1.2-2.8,2.8-2.8
				C66.9,363.9,68.2,365.2,68.2,366.7z"/><path class="st23" d="M143.1,475.3c0,3.3-2.7,5.9-5.9,5.9s-5.9-2.7-5.9-5.9c0-3.3,2.7-5.9,5.9-5.9S143.1,472,143.1,475.3z"/><path class="st23" d="M134.8,215.7c0,3.3-2.7,5.9-5.9,5.9c-3.3,0-5.9-2.7-5.9-5.9c0-3.3,2.7-5.9,5.9-5.9
				C132.1,209.8,134.8,212.4,134.8,215.7z"/><g><circle class="st17" cx="216.8" cy="329.4" r="128.4"/><g><path class="st13" d="M127.4,450h152.1L257,337.9c-1.5-7.6-7.5-13-14.4-13H120.7c-9.5,0-16.5,10-14.4,20.5L127.4,450z"/><g><g><path class="st24" d="M216.1,420.2c-14.3,8.3-53.2,9.1-53.2,9.1s-16.6-160.9,41-193.1c10.4-4.4,36.1,0.8,44.4,9.3
								c3,3.1,8.1,15.2,6.7,19.2l-26.3,81.5"/><polygon class="st24" points="248.2,268.2 287.2,387.4 230.9,338.4 							"/></g><g><path class="st25" d="M211.1,272.7c-0.1,0.6-0.6,0.9-1.1,0.8c-2.2-0.6-7.6-1.5-9.6,4.4c-2,6,5.9,9.4,9.2,10.5
								c1,0.3,1.8,1,2.2,2c1.5,2.9,6,13.9,9.5,23.8c3,8.6,1.8,29.5,1.8,29.5s24.4,0.6,36.2-4c0,0-16.8-31.1-16.2-38.8
								c0-0.2,14.3-0.8,14.4-25.8c0.1-23.6-17.4-26.7-21.4-27C232.6,247.7,216.2,244.7,211.1,272.7z"/><path class="st11" d="M243.6,300.7c0,0-2.1,0.6-7,0.8c-1.2,0.1-3.4-0.1-5.5-0.5c-1.2-0.3-1.9,1.3-1,2.1
								c0,0,16.1,14.9,17,10.8C247.9,310.7,242.2,303.7,243.6,300.7z"/></g></g><circle class="st6" cx="208.1" cy="288.5" r="6"/><circle class="st6" cx="208.1" cy="299.9" r="6"/><path class="st25" d="M340.5,314.3c0,0,5.4-24.7,7.4-26.3c2-1.6,0.3,14.8,2.4,14.1C350.3,302.2,342.9,312.7,340.5,314.3z"/><path class="st11" d="M211.2,353.6"/><g><path class="st25" d="M258,390.6c-3.9-3.5-8.1-7.3-12.6-11.6l14.1-26.4c-2.6-5.2-4.7-9.8-5.8-12.7c-0.7-1.9-0.2-4.1,0.1-4.1
							c5.9,0.6,41,41.9,46.9,47.6c1.8,1.8,4.9,0.2,6-2l33.4-67c0.8-1.9,10.9-13.5,17.8-34.3c7.2,5.7,5.3,23.3,3.7,31
							c0,0-23.6,99-47.9,113c0,0-32.1,3.7-52.3-30.5c-2,1.5-3.3,2.6-3.3,2.6C252,392.8,253.7,391.3,258,390.6z"/><path class="st6" d="M192.4,341.6c0,0,11.4-5.2,20.7-8.9c9.3-6.3,9.6-14.4,9.6-14.4c21.8-2.6,26.6-0.2,26.6-0.2
							c4,4.8,8.9,15.8,8.9,15.8c-0.6,1.6,19.9,29.7,23,45c2.9,14.5,13.4,59.3,13.4,65l-89,0.8C205.6,444.7,186,361.1,192.4,341.6z"/><pattern id="SVGID_2_" xlink:href="#SVGID_1_" patternTransform="matrix(1.1919 0 0 -1.1919 2899.6665 -16570.2637)"/><path class="st26" d="M192.4,341.6c0,0,11.4-5.2,20.7-8.9c9.3-6.3,9.6-14.4,9.6-14.4c21.8-2.6,27.4,0.6,27.4,0.6
							c4,4.8,8.1,15,8.1,15c-0.6,1.6,19.9,29.7,23,45c2.9,14.5,13.4,59.3,13.4,65l-89,0.8C205.6,444.7,186,361.1,192.4,341.6z"/><path class="st25" d="M208.2,368.2c2.5-11.4,6.1-29.4,5.9-35.9c0,0-15.4,6.3-19.6,7.8v0.2c-3.4,1.3-7.6,3-9.9,4.3
							c-13.7,7.8-9.7,43.2-10.4,57.9c-0.6,13.5-7.5,46.5,27,47.1c34.4,0.6,113.7-4,113.7-4s-2.7-17.8-20.6-18.1
							c-17.9-0.3-58.6-3.2-71.9-10.1C209.3,410.6,208.1,385.9,208.2,368.2z"/></g><g><path class="st27" d="M203.4,280.4c0,0,1.1-8.4,8.1,0.4"/><g><path class="st28" d="M233.7,276.1c3.2,0.8,5.2,4.1,4.3,7.3c-0.8,3.2-4.1,5.2-7.3,4.3c-3.2-0.8-5.2-4.1-4.3-7.3
								C227.2,277.2,230.5,275.2,233.7,276.1z"/><path class="st6" d="M254.8,281.1l-13.3,1.9c0,0,3.6,6.2,7.4,5.3C252.8,287.4,254.8,281.1,254.8,281.1z"/><path class="st29" d="M249,274.1l-0.4,6.7l3.4-0.5c0.6-0.1,0.9-0.8,0.6-1.3L249,274.1z"/><path class="st11" d="M237.6,267.3c-1.1,0.9,0.5-3,2.1-3.5s3.3,0.1,3.8,1.5C243.4,265.3,240.3,265.1,237.6,267.3z"/><path class="st11" d="M255.7,263.5c-1.7-0.3-3.9,0.8-4.1,2.3c0,0,2.4-0.7,4.7,0.1"/><path class="st11" d="M243.7,273.7c0.1,1.2,0.7,2.1,1.3,2s0.9-1.1,0.8-2.2c-0.1-1.2-0.7-2.1-1.3-2
								C243.9,271.5,243.6,272.5,243.7,273.7z"/><path class="st11" d="M252.3,272.1c0.1,1.1,0.7,2,1.2,1.9s0.9-1,0.8-2.1c-0.1-1.1-0.7-2-1.2-1.9
								C252.5,270,252.2,271,252.3,272.1z"/></g></g><g><path class="st24" d="M249.3,259.7c0,0-22.3,1.5-40.4,7.9C208.9,267.6,221.3,210.3,249.3,259.7z"/></g></g><g><path class="st3" d="M139.2,275.8h-102c-9.3,0-16.9-7.6-16.9-16.9l0,0c0-9.3,7.6-16.9,16.9-16.9h102c9.3,0,16.9,7.6,16.9,16.9
						l0,0C156,268.2,148.5,275.8,139.2,275.8z"/><polygon class="st11" points="83.4,270.3 83.4,251 97.1,260.7 					"/><path class="st4" d="M134.5,261.4c0-3.6-2.9-6.5-6.5-6.5c-3.6,0-6.5,2.9-6.5,6.5s2.9,6.5,6.5,6.5
						C131.6,267.9,134.5,265,134.5,261.4z"/><path class="st11" d="M58.3,261.4c0-3.6-2.9-6.5-6.5-6.5s-6.5,2.9-6.5,6.5s2.9,6.5,6.5,6.5S58.3,265,58.3,261.4z"/></g><g><g><g><rect x="434.7" y="444.3" class="st13" width="46.9" height="6.2"/><path class="st13" d="M486.5,412.7c-2.4,0-4.7,0.6-6.8,1.7v-2.8h-43.8v19c0,7.7,6.3,14,14,14h15.8c4.6,0,8.7-2.3,11.3-5.7
								c2.7,2.3,6,3.5,9.6,3.5c8.2,0,14.8-6.6,14.8-14.8C501.3,419.3,494.7,412.7,486.5,412.7z M486.5,440.7c-3.2,0-6.3-1.2-8.7-3.3
								c1.2-2,1.8-4.4,1.8-6.9v-14.3c2.1-1.3,4.4-1.9,6.8-1.9c7.3,0,13.2,5.9,13.2,13.2C499.8,434.8,493.8,440.7,486.5,440.7z"/></g></g><g><rect x="218.4" y="440.4" class="st11" width="88.1" height="10.3"/><polygon class="st4" points="218.4,440.4 276,440.4 271.5,450.7 218.4,450.7 						"/><polygon class="st4" points="416.7,450.7 277.8,450.7 311.3,355 450.2,355 						"/><ellipse class="st11" cx="363.4" cy="405.5" rx="8.7" ry="8.7"/></g><g><g><path class="st6" d="M163.4,451.1h-19c-5.7,0-10.4-4.7-10.4-10.4v-27.9h39.8v27.9C173.8,446.4,169.2,451.1,163.4,451.1z"/><path class="st6" d="M163.4,451.1h-19c-5.7,0-10.4-4.7-10.4-10.4v-27.9"/></g><g><g><path class="st11" d="M144.9,381.9c-1.6-1.8-3.2-3.6-4.9-5.2c-2.3-2.3-4.6-4.6-7.4-6.3c-0.9,1.6-2.4,3.1-4.1,2.8
									c-1.9-0.2-3.2-2.3-3.7-4.1c-0.1,0.1-0.1,0.1-0.2,0.2c-0.5,0.5-0.7,1.1-0.9,1.8c-0.3,1.1-0.4,2.2-0.5,3.3
									C129.3,379,137.1,384.5,144.9,381.9z"/></g><g><path class="st11" d="M145.1,382.2L145.1,382.2c-7.9,2.6-15.7-2.7-21.8-7.5c0,2.6,0.8,5.2,1.9,7.6c1.6,3.5,3.9,6.7,5.9,10
									c0.3,0.5,0.6,1.2,0.5,1.8c2.2,3.3,3.7,7,4.4,11c0,0.2-0.3,0.3-0.3,0.1c-0.6-3.9-2-7.5-4.2-10.8c-0.6,1-2.2,0.6-3.2,0.1
									c-0.1-0.1-0.2-0.1-0.4-0.2c1.4,2.6,2.7,5.2,4.1,7.8c0,0.1,0,0.2-0.1,0.2c3.7,3,7.1,6.5,10.3,9.9c0.1,0.1-0.1,0.3-0.2,0.2
									c-6.2-6.7-13-13.4-21.6-16.7c0,0.1,0,0.1,0,0.2c1.4,8.7,8.9,16,17.6,17l29.4-0.2C161.4,402.2,153.4,391.5,145.1,382.2z"/></g><g><path class="st11" d="M127.8,372.6c1.9,0.9,3.6-0.8,4.6-2.5c-0.9-0.5-1.7-1-2.7-1.3c-1.5-0.6-3.4-0.9-4.7,0
									C125.4,370.4,126.4,372,127.8,372.6z"/></g><g><path class="st11" d="M131.6,402.1c-1.4-2.7-2.8-5.3-4.2-8c-1.1-0.6-2.2-1.2-3.4-1.8c-0.6-0.3-1.2-0.6-1.8-0.6
									c-1.5,0.1-2,2-1.9,3.6C124.4,397,128.1,399.4,131.6,402.1z"/></g></g><g><g><path class="st4" d="M163.4,391.9c1.1-1.2,2.2-2.4,3.3-3.6c1.5-1.6,3.1-3.2,5-4.3c0.6,1.1,1.6,2.1,2.8,1.9
									c1.3-0.2,2.2-1.6,2.5-2.8l0.1,0.1c0.3,0.3,0.5,0.8,0.6,1.2c0.2,0.7,0.3,1.5,0.3,2.3C174,390,168.7,393.6,163.4,391.9z"/></g><g><path class="st4" d="M163.2,392.1C163.3,392.1,163.3,392.1,163.2,392.1c5.4,1.8,10.7-1.8,14.8-5.1c0,1.8-0.5,3.5-1.3,5.2
									c-1.1,2.4-2.6,4.5-4,6.8c-0.2,0.4-0.4,0.8-0.4,1.2c-1.5,2.2-2.5,4.8-3,7.5c0,0.1,0.2,0.2,0.2,0.1c0.4-2.6,1.4-5.1,2.9-7.3
									c0.4,0.7,1.5,0.4,2.2,0.1c0.1,0,0.2-0.1,0.3-0.1c-0.9,1.8-1.8,3.5-2.8,5.3c0,0.1,0,0.1,0,0.1c-2.5,2-4.8,4.4-7,6.7
									c-0.1,0.1,0.1,0.2,0.1,0.1c4.2-4.5,8.8-9.1,14.7-11.3v0.1c-0.9,5.9-6.1,10.8-12,11.5l-19.9-0.1
									C152.2,405.7,157.6,398.4,163.2,392.1z"/></g><g><path class="st4" d="M175,385.6c-1.3,0.6-2.5-0.5-3.1-1.7c0.6-0.3,1.2-0.7,1.8-0.9c1-0.4,2.3-0.6,3.2,0
									C176.6,384.1,176,385.2,175,385.6z"/></g><g><path class="st4" d="M172.5,405.6c1-1.8,1.9-3.6,2.8-5.4c0.8-0.4,1.5-0.8,2.3-1.2c0.4-0.2,0.8-0.4,1.2-0.4
									c1,0.1,1.4,1.4,1.3,2.5C177.3,402.2,174.8,403.7,172.5,405.6z"/></g></g></g><line class="st30" x1="77.3" y1="450.7" x2="509.3" y2="450.7"/></g></g></g><g><g><circle class="st17" cx="295.5" cy="191.2" r="48.1"/></g><g><path class="st18" d="M321.2,220.3h-49.4c-3.2,0-5.9-2.6-5.9-5.9v-64c0-3.2,2.6-5.9,5.9-5.9h49.4c3.2,0,5.9,2.6,5.9,5.9v64
					C327.1,217.7,324.4,220.3,321.2,220.3z"/><g><path class="st31" d="M312.8,214.1h-36.9c-1.3,0-2.4-1.1-2.4-2.4v-58.8c0-1.3,1.1-2.4,2.4-2.4h42.2c1.3,0,2.4,1.1,2.4,2.4v53.7
						C319.6,207.6,313.7,213.2,312.8,214.1z"/><path class="st32" d="M319.6,206.3l-7.6,7.6l-0.2-4.8c-0.1-1.7,1.3-3,3-3L319.6,206.3z"/><g><g><path class="st18" d="M279.9,152.3L279.9,152.3c-1.3,0-2.4-1.1-2.4-2.4v-7.3c0-1.3,1.1-2.4,2.4-2.4l0,0
								c1.3,0,2.4,1.1,2.4,2.4v7.3C282.3,151.2,281.2,152.3,279.9,152.3z"/><path class="st33" d="M279.9,155.5L279.9,155.5c-1.3,0-2.4-1.1-2.4-2.4v-7.3c0-1.3,1.1-2.4,2.4-2.4l0,0
								c1.3,0,2.4,1.1,2.4,2.4v7.3C282.3,154.4,281.2,155.5,279.9,155.5z"/></g><g><path class="st18" d="M295.1,152.3L295.1,152.3c-1.3,0-2.4-1.1-2.4-2.4v-7.3c0-1.3,1.1-2.4,2.4-2.4l0,0
								c1.3,0,2.4,1.1,2.4,2.4v7.3C297.5,151.2,296.5,152.3,295.1,152.3z"/><path class="st33" d="M295.1,155.5L295.1,155.5c-1.3,0-2.4-1.1-2.4-2.4v-7.3c0-1.3,1.1-2.4,2.4-2.4l0,0
								c1.3,0,2.4,1.1,2.4,2.4v7.3C297.5,154.4,296.5,155.5,295.1,155.5z"/></g><g><path class="st18" d="M310.4,152.3L310.4,152.3c-1.3,0-2.4-1.1-2.4-2.4v-7.3c0-1.3,1.1-2.4,2.4-2.4l0,0
								c1.3,0,2.4,1.1,2.4,2.4v7.3C312.8,151.2,311.7,152.3,310.4,152.3z"/><path class="st33" d="M310.4,155.5L310.4,155.5c-1.3,0-2.4-1.1-2.4-2.4v-7.3c0-1.3,1.1-2.4,2.4-2.4l0,0
								c1.3,0,2.4,1.1,2.4,2.4v7.3C312.8,154.4,311.7,155.5,310.4,155.5z"/></g></g><g><path class="st34" d="M283.2,182.1c0,1.4-1.1,2.5-2.5,2.5s-2.5-1.1-2.5-2.5s1.1-2.5,2.5-2.5S283.2,180.7,283.2,182.1z"/><path class="st34" d="M283.2,192.9c0,1.4-1.1,2.5-2.5,2.5s-2.5-1.1-2.5-2.5s1.1-2.5,2.5-2.5S283.2,191.5,283.2,192.9z"/><path class="st34" d="M283.2,203.7c0,1.4-1.1,2.5-2.5,2.5s-2.5-1.1-2.5-2.5s1.1-2.5,2.5-2.5S283.2,202.3,283.2,203.7z"/><g><path class="st35" d="M309.8,182.9h-20.3c-0.6,0-1-0.5-1-1l0,0c0-0.6,0.5-1,1-1h20.3c0.6,0,1,0.5,1,1l0,0
								C310.9,182.4,310.4,182.9,309.8,182.9z"/><path class="st35" d="M309.8,194h-20.3c-0.6,0-1-0.5-1-1l0,0c0-0.6,0.5-1,1-1h20.3c0.6,0,1,0.5,1,1l0,0
								C310.9,193.5,310.4,194,309.8,194z"/><path class="st35" d="M309.8,205.1h-20.3c-0.6,0-1-0.5-1-1l0,0c0-0.6,0.5-1,1-1h20.3c0.6,0,1,0.5,1,1l0,0
								C310.9,204.7,310.4,205.1,309.8,205.1z"/></g><path class="st36" d="M280.8,183.1c-0.2,0-0.3-0.1-0.4-0.2l-2.7-3c-0.2-0.3-0.2-0.7,0-1s0.6-0.3,0.9,0l2.2,2.6l3.9-4.4
							c0.2-0.3,0.6-0.3,0.9,0c0.2,0.3,0.2,0.7,0,1l-4.3,4.9C281.1,183,280.9,183.1,280.8,183.1z"/><path class="st36" d="M280.8,194c-0.2,0-0.3-0.1-0.4-0.2l-2.7-3c-0.2-0.3-0.2-0.7,0-1s0.6-0.3,0.9,0l2.2,2.6l3.9-4.4
							c0.2-0.3,0.6-0.3,0.9,0c0.2,0.3,0.2,0.7,0,1l-4.3,4.9C281.1,193.9,280.9,194,280.8,194z"/></g><g><ellipse transform="matrix(0.3942 -0.919 0.919 0.3942 26.2334 374.117)" class="st17" cx="296.9" cy="167.2" rx="8.8" ry="8.8"/><g><g><path class="st7" d="M295.1,175.7l0.3-3.2l4.8-3.7c0,0,0.5,0.2,0.5,0.3c0.1,0.2,0.3,0.2,0.3,0.2l0.1,5.4
									C301.2,174.7,298.8,176.4,295.1,175.7z"/><path class="st8" d="M300.2,168.8l-4.8,3.7l-0.3,3.2c0,0,4-1.4,4.4-4.8"/></g><g><path class="st9" d="M302,166.9c0,0-0.7,0.1-1.2,0.8l-1.9-5.4c0,0-1.7-1.1-2.6-0.4c-0.9,0.7-1.6,1.1-2.2,0.9
									s-1.1-1.1-1.1-1.1s-3.3-3.8-2.2-4.5c1.2-0.7,8.1,0.8,10,2c1.8,1.1,2.8,2.4,1.3,7.9"/><path class="st7" d="M300.7,167.1c0.1,0.1,0.2,0.2,0.3,0.1c0.4-0.4,1.1-0.9,1.4,0.5c0.4,1.9-1.6,1.6-1.8,1.9
									c-0.3,0.5-1.3,2.3-2.9,3.1c-1,0.4-2.4,0.6-3.5-0.4s-1.5-0.3-1.4-10.9c0,0,0.5,0.9,1.2,1.1c0.7,0.2,1.8-0.8,2.6-1
									c0.6-0.2,1.9-0.7,2.7,1.5C299.8,164,300.4,166.3,300.7,167.1z"/><g><path class="st6" d="M293.2,169c0,0,0.6,0.3,2.2,0.1c0,0-0.8,1.1-1.4,0.9C293.3,169.9,293.2,169,293.2,169z"/><path class="st10" d="M302.2,167.6l-1.1,0.8C301.1,168.4,301.5,166.5,302.2,167.6z"/><path class="st8" d="M294.4,166.7c0,0.2,0.1,0.4,0.2,0.4s0.2-0.2,0.2-0.4s-0.1-0.4-0.2-0.4S294.4,166.5,294.4,166.7z"/><path class="st8" d="M293,166.6c0,0.2,0.1,0.4,0.2,0.4s0.2-0.2,0.2-0.4s-0.1-0.4-0.2-0.4C293.1,166.2,293,166.4,293,166.6z
										"/><path class="st8" d="M296.1,164.9c0.3,0.2-0.2-0.7-0.6-0.8s-0.8,0.1-0.9,0.5C294.5,164.6,295.3,164.4,296.1,164.9z"/><path class="st8" d="M292.9,164.9c0.4-0.1,0.8,0,0.8,0c-0.1-0.3-0.4-0.6-0.8-0.6"/><path class="st10" d="M293.6,166.6l-0.6,1.8v0.1h0.8c0,0,0,0,0-0.1L293.6,166.6C293.7,166.5,293.7,166.5,293.6,166.6z"/></g></g></g></g></g></g></g></g></g></svg>